

251130 LGU+ mama encoder harmonics cp11000 -> Hc11000 오디오가 안나오 MPEG1Layer2 streo x 8ch 
encoded by https://www.harmonicinc.com/video-streaming/contribution-distribution/vibe-cp9000/
https://www.harmonicinc.com/video-streaming/contribution-distribution/vibe-cp9000/ 로 만들어진건데 NTT 의 HC11000DS에서 디코딩이 안된다 그래서 원인을 찾으려고해

팟플레이어 정보
D:\git\mpeg2TS\TS\mama_uhd2.ts
General
ID                             : 1 (0x1)
Complete name                  : D:\git\mpeg2TS\TS\mama_uhd2.ts
Format                         : MPEG-TS
File size                      : 1.05 GiB
Duration                       : 2 min 0 s
Start time                     : 2025-11-24 03:16:53 UTC
End time                       : 2025-11-24 03:18:43 UTC
Overall bit rate mode          : Constant
Overall bit rate               : 75.0 Mb/s
Frame rate                     : 59.940 FPS

Video
ID                             : 512 (0x200)
Menu ID                        : 1 (0x1)
Format                         : HEVC
Format/Info                    : High Efficiency Video Coding
Format profile                 : Format Range@L5.1@High
Codec ID                       : 36
Duration                       : 2 min 0 s
Bit rate                       : 68.2 Mb/s
Width                          : 3 840 pixels
Height                         : 2 160 pixels
Display aspect ratio           : 16:9
Frame rate                     : 59.940 (60000/1001) FPS
Standard                       : Component
Color space                    : YUV
Chroma subsampling             : 4:2:2
Bit depth                      : 10 bits
Bits/(Pixel*Frame)             : 0.137
Stream size                    : 979 MiB (91%)
Color range                    : Limited
Color primaries                : BT.709
Transfer characteristics       : BT.709
Matrix coefficients            : BT.709

Audio #1
ID                             : 258 (0x102)
Menu ID                        : 1 (0x1)
Format                         : MPEG Audio
Format version                 : Version 1
Format profile                 : Layer 2
Codec ID                       : 3
Duration                       : 2 min 0 s
Bit rate mode                  : Constant
Bit rate                       : 384 kb/s
Channel(s)                     : 2 channels
Sampling rate                  : 48.0 kHz
Frame rate                     : 41.667 FPS (1152 SPF)
Compression mode               : Lossy
Delay relative to video        : -34 ms
Stream size                    : 5.51 MiB (1%)

Audio #2
ID                             : 259 (0x103)
Menu ID                        : 1 (0x1)
Format                         : MPEG Audio
Format version                 : Version 1
Format profile                 : Layer 2
Codec ID                       : 3
Duration                       : 2 min 0 s
Bit rate mode                  : Constant
Bit rate                       : 384 kb/s
Channel(s)                     : 2 channels
Sampling rate                  : 48.0 kHz
Frame rate                     : 41.667 FPS (1152 SPF)
Compression mode               : Lossy
Delay relative to video        : -11 ms
Stream size                    : 5.51 MiB (1%)

Audio #3
ID                             : 260 (0x104)
Menu ID                        : 1 (0x1)
Format                         : MPEG Audio
Format version                 : Version 1
Format profile                 : Layer 2
Codec ID                       : 3
Duration                       : 2 min 0 s
Bit rate mode                  : Constant
Bit rate                       : 384 kb/s
Channel(s)                     : 2 channels
Sampling rate                  : 48.0 kHz
Frame rate                     : 41.667 FPS (1152 SPF)
Compression mode               : Lossy
Delay relative to video        : -82 ms
Stream size                    : 5.51 MiB (1%)

Audio #4
ID                             : 261 (0x105)
Menu ID                        : 1 (0x1)
Format                         : MPEG Audio
Format version                 : Version 1
Format profile                 : Layer 2
Codec ID                       : 3
Duration                       : 2 min 0 s
Bit rate mode                  : Constant
Bit rate                       : 384 kb/s
Channel(s)                     : 2 channels
Sampling rate                  : 48.0 kHz
Frame rate                     : 41.667 FPS (1152 SPF)
Compression mode               : Lossy
Delay relative to video        : -34 ms
Stream size                    : 5.51 MiB (1%)

Audio #5
ID                             : 262 (0x106)
Menu ID                        : 1 (0x1)
Format                         : MPEG Audio
Format version                 : Version 1
Format profile                 : Layer 2
Codec ID                       : 3
Duration                       : 2 min 0 s
Bit rate mode                  : Constant
Bit rate                       : 384 kb/s
Channel(s)                     : 2 channels
Sampling rate                  : 48.0 kHz
Frame rate                     : 41.667 FPS (1152 SPF)
Compression mode               : Lossy
Delay relative to video        : 37 ms
Stream size                    : 5.51 MiB (1%)

Audio #6
ID                             : 263 (0x107)
Menu ID                        : 1 (0x1)
Format                         : MPEG Audio
Format version                 : Version 1
Format profile                 : Layer 2
Codec ID                       : 3
Duration                       : 2 min 0 s
Bit rate mode                  : Constant
Bit rate                       : 384 kb/s
Channel(s)                     : 2 channels
Sampling rate                  : 48.0 kHz
Frame rate                     : 41.667 FPS (1152 SPF)
Compression mode               : Lossy
Delay relative to video        : -107 ms
Stream size                    : 5.51 MiB (1%)

Audio #7
ID                             : 264 (0x108)
Menu ID                        : 1 (0x1)
Format                         : MPEG Audio
Format version                 : Version 1
Format profile                 : Layer 2
Codec ID                       : 3
Duration                       : 2 min 0 s
Bit rate mode                  : Constant
Bit rate                       : 384 kb/s
Channel(s)                     : 2 channels
Sampling rate                  : 48.0 kHz
Frame rate                     : 41.667 FPS (1152 SPF)
Compression mode               : Lossy
Delay relative to video        : -59 ms
Stream size                    : 5.51 MiB (1%)

Audio #8
ID                             : 265 (0x109)
Menu ID                        : 1 (0x1)
Format                         : MPEG Audio
Format version                 : Version 1
Format profile                 : Layer 2
Codec ID                       : 3
Duration                       : 2 min 0 s
Bit rate mode                  : Constant
Bit rate                       : 384 kb/s
Channel(s)                     : 2 channels
Sampling rate                  : 48.0 kHz
Frame rate                     : 41.667 FPS (1152 SPF)
Compression mode               : Lossy
Delay relative to video        : -11 ms
Stream size                    : 5.51 MiB (1%)

Menu
ID                             : 257 (0x101)
Menu ID                        : 1 (0x1)
Format                         : HEVC / MPEG Audio / MPEG Audio / MPEG Audio / MPEG Audio / MPEG Audio / MPEG Audio / MPEG Audio / MPEG Audio
Duration                       : 2 min 0 s
List                           : 512 (0x200) (HEVC) / 258 (0x102) (MPEG Audio) / 259 (0x103) (MPEG Audio) / 260 (0x104) (MPEG Audio) / 261 (0x105) (MPEG Audio) / 262 (0x106) (MPEG Audio) / 263 (0x107) (MPEG Audio) / 264 (0x108) (MPEG Audio) / 265 (0x109) (MPEG Audio)
Service name                   : MAMS Show (M)
Service provider               : PCCWG
Service type                   : digital television

